# xmcd CD database file
#
# Track frame offsets:
#	150
#	8822
#	22082
#	35997
#	50497
#	64562
#	78147
#	92022
#	105477
#	119917
#	134117
#	147772
#	161580
#	174730
#	187505
#	201517
#	214612
#	228912
#	243707
#	256834
#	270242
#	283642
#	298007
#	312080
#	325022
#	338615
#
# Disc length: 4699 seconds
#
# Revision: 0
# Processed by: cddbd v1.5.1PL0 Copyright (c) Steve Scherf et al.
# Submitted via: CDex 1.51
#
DISCID=7812591a
DTITLE=Leadbelly - Black Betty
DYEAR=2004
DGENRE=Blues
TTITLE0=Black Betty
TTITLE1=Packin' Truck
TTITLE2=Becky Dream, She Was a Gamblin
TTITLE3=Honey, I'm All Out and Down
TTITLE4=Four Day Worry Blues
TTITLE5=Roberta, Part 1
TTITLE6=Roberta, Part 2
TTITLE7=Death Letter Blues, Part 1
TTITLE8=Death Letter Blues, Part 2
TTITLE9=Kansas City Papa
TTITLE10=Fort Worth and Dallas Blues
TTITLE11=You Don't Know My Mind
TTITLE12=Ox Drivin' Blues
TTITLE13=Daddy I'm Coming Back to You
TTITLE14=Shorty George
TTITLE15=Yellow Jacket
TTITLE16=T.B. Woman Blues
TTITLE17=Pig Meat Papa
TTITLE18=My Baby Quit Me
TTITLE19=C.C. Rider
TTITLE20=You Can't Lose Me, Charlie
TTITLE21=Black Snake Moan
TTITLE22=Alberta
TTITLE23=Baby, Don't You Love Me No More
TTITLE24=Red River
TTITLE25=Blind Lemon
EXTD=YEAR: 2004
EXTT0=
EXTT1=
EXTT2=
EXTT3=
EXTT4=
EXTT5=
EXTT6=
EXTT7=
EXTT8=
EXTT9=
EXTT10=
EXTT11=
EXTT12=
EXTT13=
EXTT14=
EXTT15=
EXTT16=
EXTT17=
EXTT18=
EXTT19=
EXTT20=
EXTT21=
EXTT22=
EXTT23=
EXTT24=
EXTT25=
PLAYORDER=
